<svg width="200" height="200" xmlns="http://www.w3.org/2000/svg">
  <!-- Pata de perro -->
  <g id="pata-perro" transform="translate(30, 70)">
    <path d="M8180 12227 c-3 -3 -39 -7 -81 -10 -168 -11 -418 -113 -598 -243
-104 -75 -277 -232 -341 -310 -92 -110 -165 -206 -184 -240 -9 -16 -37 -60
-62 -99 -25 -38 -54 -88 -65 -110 -11 -22 -25 -49 -32 -61 -62 -107 -170 -374
-222 -549 -84 -284 -127 -587 -128 -905 -2 -430 81 -819 246 -1160 109 -225
288 -448 452 -564 75 -52 240 -146 258 -146 7 0 17 -4 23 -9 9 -9 127 -45 179
-56 17 -3 80 -8 142 -12 441 -24 883 224 1234 692 279 372 499 942 549 1420 5
50 11 106 14 125 3 19 8 125 11 235 6 195 -7 411 -34 550 -5 28 -15 79 -21
115 -59 317 -203 635 -403 888 -165 209 -405 363 -674 432 -43 11 -255 25
-263 17z"/>
    <path d="M4120 12135 c-298 -67 -534 -219 -716 -460 -52 -69 -154 -228 -154
-240 0 -2 -13 -32 -29 -67 -91 -198 -158 -453 -179 -688 -14 -149 -6 -568 12
-690 42 -277 126 -579 230 -824 84 -199 263 -507 367 -632 19 -22 48 -58 64
-80 52 -67 226 -236 325 -314 87 -69 203 -150 214 -150 3 0 25 -13 49 -29 23
-17 61 -36 83 -44 21 -8 70 -26 109 -41 193 -72 395 -97 605 -74 169 19 404
127 546 251 237 207 387 460 493 832 40 144 70 339 78 510 2 72 5 135 5 140 2
39 -14 305 -23 370 -9 69 -39 251 -53 323 -13 61 -74 262 -118 387 -85 238
-200 465 -367 720 -33 50 -176 223 -247 297 -181 190 -437 365 -644 440 -157
57 -229 69 -410 74 -130 3 -192 0 -240 -11z"/>
    <path d="M10755 9490 c-266 -35 -525 -173 -768 -409 -38 -36 -105 -110 -148
-164 -44 -55 -85 -104 -90 -110 -12 -14 -85 -127 -118 -182 -152 -256 -309
-633 -361 -865 -114 -514 -123 -586 -123 -995 1 -344 10 -440 69 -715 14 -63
27 -126 30 -140 23 -118 130 -407 191 -520 175 -322 338 -496 593 -637 133
-74 347 -121 491 -109 261 22 514 138 753 346 68 59 200 205 271 300 27 36 53
70 57 75 52 65 179 296 256 465 54 118 141 357 163 445 4 17 20 82 37 145 36
138 55 240 81 420 28 196 31 240 31 536 1 325 -12 462 -73 769 -19 99 -98 350
-137 440 -23 52 -121 254 -138 281 -72 123 -231 313 -327 392 -93 76 -326 202
-374 202 -11 0 -22 4 -25 8 -3 5 -20 9 -38 10 -18 1 -57 6 -87 12 -60 11 -127
11 -216 0z"/>
    <path d="M1760 9256 c-283 -44 -464 -137 -665 -340 -113 -114 -200 -233 -268
-366 -22 -41 -43 -79 -48 -84 -5 -6 -9 -16 -9 -23 0 -8 -9 -33 -21 -56 -11
-23 -22 -49 -24 -58 -2 -9 -17 -61 -34 -115 -38 -126 -47 -166 -77 -349 -21
-132 -24 -181 -23 -400 0 -150 6 -302 15 -380 31 -266 135 -649 243 -887 122
-271 211 -425 364 -630 305 -408 707 -682 1111 -755 195 -35 382 -21 579 43
227 75 469 272 621 506 177 273 278 579 321 968 6 57 6 444 -1 530 -7 91 -33
273 -50 348 -7 34 -16 77 -19 95 -6 35 -63 229 -100 342 -55 166 -185 439
-288 605 -51 82 -191 285 -207 300 -3 3 -26 30 -51 60 -116 137 -260 270 -404
371 -108 76 -347 200 -410 213 -5 2 -41 12 -80 23 -149 45 -475 39z"/>
  </g>

  <!-- Pata de gato -->
  <g id="pata-gato" transform="translate(100, 40)">
    <path d="M50,100 
             Q60,90 70,100 
             Q80,110 90,100 
             Q100,90 110,100 
             Q120,110 130,100 
             Q140,90 150,100" 
          stroke="gray" stroke-width="2" fill="none"/>
    <circle cx="70" cy="100" r="4" fill="gray"/>
    <circle cx="110" cy="100" r="4" fill="gray"/>
    <circle cx="90" cy="110" r="4" fill="gray"/>
    <circle cx="90" cy="90" r="4" fill="gray"/>
    <!-- Uñas de gato -->
    <line x1="60" y1="100" x2="65" y2="105" stroke="gray" stroke-width="1"/>
    <line x1="80" y1="100" x2="85" y2="105" stroke="gray" stroke-width="1"/>
    <line x1="100" y1="100" x2="105" y2="105" stroke="gray" stroke-width="1"/>
    <line x1="120" y1="100" x2="125" y2="105" stroke="gray" stroke-width="1"/>
    <line x1="140" y1="100" x2="145" y2="105" stroke="gray" stroke-width="1"/>
  </g>
</svg>